HIERARCHY
ROOT hip
{
  OFFSET 0 0 0
  CHANNELS 6 Xposition Yposition Zposition Zrotation Yrotation Xrotation
  JOINT abdomen
  {
    OFFSET 0 20.6881 -0.73152
    CHANNELS 3 Zrotation Xrotation Yrotation
    JOINT chest
    {
      OFFSET 0 11.7043 -0.48768
      CHANNELS 3 Zrotation Xrotation Yrotation
      JOINT neck
      {
        OFFSET 0 22.1894 -2.19456
        CHANNELS 3 Zrotation Xrotation Yrotation
        JOINT head
        {
          OFFSET -0.24384 7.07133 1.2192
          CHANNELS 3 Zrotation Xrotation Yrotation
          JOINT leftEye
          {
            OFFSET 4.14528 8.04674 8.04672
            CHANNELS 3 Zrotation Xrotation Yrotation
            End Site
            {
              OFFSET 1 0 0
            }
          }
          JOINT rightEye
          {
            OFFSET -3.6576 8.04674 8.04672
            CHANNELS 3 Zrotation Xrotation Yrotation
            End Site
            {
              OFFSET 1 0 0
            }
          }
        }
      }
      JOINT rCollar
      {
        OFFSET -2.68224 19.2634 -4.8768
        CHANNELS 3 Zrotation Xrotation Yrotation
        JOINT rShldr
        {
          OFFSET -8.77824 -1.95073 1.46304
          CHANNELS 3 Zrotation Xrotation Yrotation
          JOINT rForeArm
          {
            OFFSET -28.1742 -1.7115 0.48768
            CHANNELS 3 Zrotation Xrotation Yrotation
            JOINT rHand
            {
              OFFSET -22.5879 0.773209 7.07136
              CHANNELS 3 Zrotation Xrotation Yrotation
              JOINT rThumb1
              {
                OFFSET -1.2192 -0.487915 3.41376
                CHANNELS 3 Zrotation Xrotation Yrotation
                JOINT rThumb2
                {
                  OFFSET -3.37035 -0.52449 3.41376
                  CHANNELS 3 Zrotation Xrotation Yrotation
                  End Site
                  {
                    OFFSET -1.78271 -1.18214 1.43049
                  }
                }
              }
              JOINT rIndex1
              {
                OFFSET -7.75947 0.938293 5.60832
                CHANNELS 3 Zrotation Xrotation Yrotation
                JOINT rIndex2
                {
                  OFFSET -2.54057 -0.884171 1.56538
                  CHANNELS 3 Zrotation Xrotation Yrotation
                  End Site
                  {
                    OFFSET -1.62519 -0.234802 1.16502
                  }
                }
              }
              JOINT rMid1
              {
                OFFSET -8.24714 1.18213 3.41376
                CHANNELS 3 Zrotation Xrotation Yrotation
                JOINT rMid2
                {
                  OFFSET -3.10165 -0.590103 1.0647
                  CHANNELS 3 Zrotation Xrotation Yrotation
                  End Site
                  {
                    OFFSET -2.48547 -0.328903 0.83742
                  }
                }
              }
              JOINT rRing1
              {
                OFFSET -8.82822 0.546677 1.51678
                CHANNELS 3 Zrotation Xrotation Yrotation
                JOINT rRing2
                {
                  OFFSET -2.60934 -0.819778 -0.0198488
                  CHANNELS 3 Zrotation Xrotation Yrotation
                  End Site
                  {
                    OFFSET -2.33842 -0.294052 0.168128
                  }
                }
              }
              JOINT rPinky1
              {
                OFFSET -8.27202 -0.0477905 -0.4584
                CHANNELS 3 Zrotation Xrotation Yrotation
                JOINT rPinky2
                {
                  OFFSET -1.82734 -0.647385 -0.700984
                  CHANNELS 3 Zrotation Xrotation Yrotation
                  End Site
                  {
                    OFFSET -1.69225 -0.51767 -0.607171
                  }
                }
              }
            }
          }
        }
      }
      JOINT lCollar
      {
        OFFSET 2.68224 19.2634 -4.8768
        CHANNELS 3 Zrotation Xrotation Yrotation
        JOINT lShldr
        {
          OFFSET 8.77824 -1.95073 1.46304
          CHANNELS 3 Zrotation Xrotation Yrotation
          JOINT lForeArm
          {
            OFFSET 28.1742 -1.7115 0.48768
            CHANNELS 3 Zrotation Xrotation Yrotation
            JOINT lHand
            {
              OFFSET 22.5879 0.773209 7.07136
              CHANNELS 3 Zrotation Xrotation Yrotation
              JOINT lThumb1
              {
                OFFSET 1.2192 -0.487915 3.41376
                CHANNELS 3 Zrotation Xrotation Yrotation
                JOINT lThumb2
                {
                  OFFSET 3.37035 -0.52449 3.41376
                  CHANNELS 3 Zrotation Xrotation Yrotation
                  End Site
                  {
                    OFFSET 1.78271 -1.18214 1.43049
                  }
                }
              }
              JOINT lIndex1
              {
                OFFSET 7.75947 0.938293 5.60832
                CHANNELS 3 Zrotation Xrotation Yrotation
                JOINT lIndex2
                {
                  OFFSET 2.54057 -0.884171 1.56538
                  CHANNELS 3 Zrotation Xrotation Yrotation
                  End Site
                  {
                    OFFSET 1.62519 -0.234802 1.16502
                  }
                }
              }
              JOINT lMid1
              {
                OFFSET 8.24714 1.18213 3.41376
                CHANNELS 3 Zrotation Xrotation Yrotation
                JOINT lMid2
                {
                  OFFSET 3.10165 -0.590103 1.0647
                  CHANNELS 3 Zrotation Xrotation Yrotation
                  End Site
                  {
                    OFFSET 2.48547 -0.328903 0.83742
                  }
                }
              }
              JOINT lRing1
              {
                OFFSET 8.82822 0.546677 1.51678
                CHANNELS 3 Zrotation Xrotation Yrotation
                JOINT lRing2
                {
                  OFFSET 2.60934 -0.819778 -0.0198488
                  CHANNELS 3 Zrotation Xrotation Yrotation
                  End Site
                  {
                    OFFSET 2.33842 -0.294052 0.168128
                  }
                }
              }
              JOINT lPinky1
              {
                OFFSET 8.27202 -0.0477905 -0.4584
                CHANNELS 3 Zrotation Xrotation Yrotation
                JOINT lPinky2
                {
                  OFFSET 1.82734 -0.647385 -0.700984
                  CHANNELS 3 Zrotation Xrotation Yrotation
                  End Site
                  {
                    OFFSET 1.69225 -0.51767 -0.607171
                  }
                }
              }
            }
          }
        }
      }
    }
  }
  JOINT rButtock
  {
    OFFSET -8.77824 4.35084 1.2192
    CHANNELS 3 Zrotation Xrotation Yrotation
    JOINT rThigh
    {
      OFFSET 0 -1.70687 -2.19456
      CHANNELS 3 Zrotation Xrotation Yrotation
      JOINT rShin
      {
        OFFSET 0 -36.8199 0.73152
        CHANNELS 3 Zrotation Xrotation Yrotation
        JOINT rFoot
        {
          OFFSET 0.73152 -45.1104 -5.12064
          CHANNELS 3 Zrotation Xrotation Yrotation
          End Site
          {
            OFFSET -1.1221 -3.69964 12.103
          }
        }
      }
    }
  }
  JOINT lButtock
  {
    OFFSET 8.77824 4.35084 1.2192
    CHANNELS 3 Zrotation Xrotation Yrotation
    JOINT lThigh
    {
      OFFSET 0 -1.70687 -2.19456
      CHANNELS 3 Zrotation Xrotation Yrotation
      JOINT lShin
      {
        OFFSET 0 -36.8199 0.73152
        CHANNELS 3 Zrotation Xrotation Yrotation
        JOINT lFoot
        {
          OFFSET -0.73152 -45.1104 -5.12064
          CHANNELS 3 Zrotation Xrotation Yrotation
          End Site
          {
            OFFSET 1.1221 -3.69964 12.103
          }
        }
      }
    }
  }
}
MOTION
Frames:	4
Frame Time:	0.03333
5.649179977081076 72.95539975166321 22.6902000096743 -3.5328969955444336 -5.245432376861572 7.246200084686279 -9.348278045654297 17.62278938293457 9.284109115600586 1.5780839920043945 -8.236218452453613 2.321072578430176 -2.9864377975463867 13.943090438842773 -4.538814067840576 7.929232120513916 -31.338497161865234 -6.790058612823486 -0.0 0.0 -0.0 -0.0 0.0 -0.0 -0.0 0.0 -0.0 59.4347038269043 32.93519973754883 1.1099122762680054 -28.331098556518555 -33.2412109375 72.4640884399414 -0.03731082007288933 5.504612445831299 0.7761039733886719 -0.0 -0.0 -0.0 -0.0 -0.0 -0.0 -0.0 -0.0 -0.0 7.730902194976807 5.47491455078125 0.4173222780227661 -0.0 -0.0 -0.0 2.905566453933716 0.9650754332542419 0.10300818830728531 -0.0 -0.0 -0.0 10.278596878051758 0.7318810820579529 0.026273518800735474 -0.0 -0.0 -0.0 2.221662998199463 -0.7334509491920471 -0.20832103490829468 -0.0 0.0 -0.0 -48.0922966003418 32.86910629272461 -30.526094436645508 28.157896041870117 -31.64519500732422 -69.87090301513672 1.0060057640075684 -27.243513107299805 4.149723529815674 -0.0 -0.0 -0.0 -0.0 -0.0 -0.0 -0.0 -0.0 -0.0 -7.730902194976807 5.47491455078125 -0.4173222780227661 -0.0 -0.0 -0.0 -2.905566453933716 0.9650754332542419 -0.10300818830728531 -0.0 -0.0 -0.0 -10.278596878051758 0.7318810820579529 -0.026273518800735474 -0.0 -0.0 -0.0 -2.221662998199463 -0.7334509491920471 0.20832103490829468 -0.0 0.0 -0.0 -17.022811889648438 -58.06669998168945 -15.797694206237793 -172.52169799804688 79.94380187988281 172.53269958496094 -4.963638782501221 -0.7783418297767639 -15.579288482666016 0.0 0.0 0.0 -3.880051851272583 -55.66538619995117 -2.462682008743286 1.8127801418304443 67.76937866210938 -1.968461036682129 5.054893493652344 -12.327584266662598 13.930807113647461
5.542369978684292 73.68460297584534 24.67329999926733 -3.761000871658325 -4.164645671844482 5.549997806549072 -9.12270736694336 19.719295501708984 8.417949676513672 1.9376052618026733 -8.329319953918457 2.128026247024536 -3.080693483352661 13.964597702026367 -4.39793586730957 8.28085708618164 -31.533203125 -6.396076679229736 -0.0 0.0 -0.0 -0.0 0.0 -0.0 -0.0 0.0 0.0 60.51079559326172 31.61009979248047 0.4783570170402527 -28.259199142456055 -32.489315032958984 71.24320220947266 -0.05173596367239952 5.532655715942383 0.7808614373207092 0.0 0.0 -0.0 0.0 0.0 -0.0 0.0 0.0 -0.0 7.730902194976807 5.47491455078125 0.4173222780227661 0.0 0.0 -0.0 2.905566453933716 0.9650754332542419 0.10300818830728531 0.0 0.0 -0.0 10.278596878051758 0.7318810820579529 0.026273518800735474 0.0 0.0 -0.0 2.221662998199463 -0.7334509491920471 -0.20832103490829468 -0.0 0.0 0.0 -47.476600646972656 32.37349319458008 -32.421207427978516 28.04071044921875 -30.860788345336914 -68.62449645996094 0.9022663235664368 -26.126386642456055 3.94901442527771 -0.0 0.0 -0.0 -0.0 0.0 -0.0 -0.0 0.0 -0.0 -7.730902194976807 5.47491455078125 -0.4173222780227661 -0.0 0.0 -0.0 -2.905566453933716 0.9650754332542419 -0.10300818830728531 -0.0 0.0 -0.0 -10.278596878051758 0.7318810820579529 -0.026273518800735474 -0.0 0.0 -0.0 -2.221662998199463 -0.7334509491920471 0.20832103490829468 -0.0 0.0 -0.0 -20.788217544555664 -65.05239868164062 -20.83141326904297 -173.8049774169922 77.47107696533203 173.88800048828125 -4.723349571228027 -1.3252743482589722 -14.423895835876465 0.0 0.0 0.0 -3.597020149230957 -51.959808349609375 -2.206833600997925 1.5897351503372192 66.6797103881836 -2.077705144882202 5.295821189880371 -13.434085845947266 13.560604095458984
5.3865299794779276 74.5244026184082 26.87949998799013 -3.6948022842407227 -2.8479621410369873 2.9860973358154297 -9.382613182067871 22.955394744873047 7.5308074951171875 2.5768961906433105 -8.656516075134277 1.8900141716003418 -2.929138660430908 14.175610542297363 -4.356538772583008 8.037501335144043 -31.971004486083984 -6.37099552154541 -0.0 0.0 -0.0 -0.0 0.0 -0.0 -0.0 0.0 0.0 61.233497619628906 30.32689666748047 0.20763897895812988 -28.1532039642334 -31.611492156982422 69.82139587402344 -0.03208743780851364 5.106871128082275 0.7195141911506653 -0.0 0.0 0.0 -0.0 0.0 0.0 -0.0 0.0 0.0 7.730902194976807 5.47491455078125 0.4173222780227661 -0.0 0.0 0.0 2.905566453933716 0.9650754332542419 0.10300818830728531 -0.0 0.0 0.0 10.278596878051758 0.7318810820579529 0.026273518800735474 -0.0 0.0 0.0 2.221662998199463 -0.7334509491920471 -0.20832103490829468 -0.0 0.0 0.0 -46.8551025390625 31.8240909576416 -34.39959716796875 27.92290496826172 -30.169984817504883 -67.5158920288086 0.801935613155365 -24.56303596496582 3.682509183883667 -0.0 0.0 -0.0 -0.0 0.0 -0.0 -0.0 0.0 -0.0 -7.730902194976807 5.47491455078125 -0.4173222780227661 -0.0 0.0 -0.0 -2.905566453933716 0.9650754332542419 -0.10300818830728531 -0.0 0.0 -0.0 -10.278596878051758 0.7318810820579529 -0.026273518800735474 -0.0 0.0 -0.0 -2.221662998199463 -0.7334509491920471 0.20832103490829468 -0.0 0.0 -0.0 -27.67272186279297 -71.12989807128906 -27.705320358276367 -174.78863525390625 74.59181213378906 174.95773315429688 -4.014367580413818 -3.0223443508148193 -11.163287162780762 0.0 0.0 0.0 -3.7947938442230225 -46.974395751953125 -2.2181856632232666 1.3367855548858643 65.1881103515625 -2.1928374767303467 5.480903625488281 -14.458779335021973 13.12340259552002
5.196699977568642 75.51429867744446 29.33279997232603 -3.7407078742980957 -1.263793706893921 -0.3956359028816223 -9.529279708862305 26.790794372558594 6.474310398101807 3.2928338050842285 -9.027697563171387 1.600838303565979 -2.7748701572418213 14.399690628051758 -4.332878112792969 7.6889142990112305 -32.30270004272461 -6.417228698730469 -0.0 0.0 -0.0 -0.0 0.0 -0.0 0.0 0.0 -0.0 61.69459915161133 29.259796142578125 0.13440394401550293 -28.006399154663086 -30.650390625 68.2876968383789 -0.02368438057601452 4.389747619628906 0.6179571747779846 -0.0 -0.0 -0.0 -0.0 -0.0 -0.0 -0.0 -0.0 -0.0 7.730902194976807 5.47491455078125 0.4173222780227661 -0.0 -0.0 -0.0 2.905566453933716 0.9650754332542419 0.10300818830728531 -0.0 -0.0 -0.0 10.278596878051758 0.7318810820579529 0.026273518800735474 -0.0 -0.0 -0.0 2.221662998199463 -0.7334509491920471 -0.20832103490829468 0.0 0.0 -0.0 -46.20970153808594 31.227397918701172 -36.33769607543945 27.813308715820312 -29.595598220825195 -66.60379791259766 0.6994048953056335 -23.279829025268555 3.463576316833496 -0.0 -0.0 -0.0 -0.0 -0.0 -0.0 -0.0 -0.0 -0.0 -7.730902194976807 5.47491455078125 -0.4173222780227661 -0.0 -0.0 -0.0 -2.905566453933716 0.9650754332542419 -0.10300818830728531 -0.0 -0.0 -0.0 -10.278596878051758 0.7318810820579529 -0.026273518800735474 -0.0 -0.0 -0.0 -2.221662998199463 -0.7334509491920471 0.20832103490829468 -0.0 0.0 -0.0 -40.55811309814453 -76.3155288696289 -39.9310302734375 -175.5021514892578 71.33818817138672 175.7391815185547 -3.051565647125244 -4.325273513793945 -7.759252071380615 0.0 0.0 0.0 -3.9309043884277344 -41.10159683227539 -2.371845006942749 1.083779215812683 63.41263198852539 -2.3400771617889404 5.606744289398193 -15.500893592834473 12.572097778320312
